<svg xmlns="http://www.w3.org/2000/svg" width="221.475" height="221.475" viewBox="0 0 221.475 221.475">
  <g id="Icon_Fussball" transform="translate(-14797.361 -298.394)">
    <path id="Icon_ion-md-football" data-name="Icon ion-md-football" d="M114.112,3.375A110.737,110.737,0,1,0,224.85,114.112,110.857,110.857,0,0,0,114.112,3.375ZM45.434,104.636l20.87,9.53,9.1,35.617-8.305,15.6-30.453-.373A92.984,92.984,0,0,1,22.009,124.92Zm115.689,60.746-8.305-15.6,9.1-35.67,20.816-9.477,23.425,20.284a92.305,92.305,0,0,1-14.641,40.089l-30.4.373Zm17.249-77.836L155.16,97.981,122.631,70.509V45.381l25.5-17.356A94.931,94.931,0,0,1,188.381,58.8ZM79.667,28.078l25.4,17.3V70.509L72.586,97.928,49.693,87.493,39.737,58.957A92.2,92.2,0,0,1,79.667,28.078ZM94.094,204.619c-.373-.106-.692-.16-1.065-.266L82.116,175.018l7.826-15.652h48.341l7.986,16.131-10.541,28.7c-.532.106-1.065.266-1.6.373a134.221,134.221,0,0,1-21.509,2.183,90.276,90.276,0,0,1-18.527-2.13Z" transform="translate(14793.986 295.019)" fill="#d99129"/>
  </g>
</svg>
