<svg xmlns="http://www.w3.org/2000/svg" xmlns:xlink="http://www.w3.org/1999/xlink" width="232.307" height="291.565" viewBox="0 0 232.307 291.565">
  <defs>
    <clipPath id="clip-path">
      <rect id="Rechteck_243" data-name="Rechteck 243" width="232.307" height="291.565" fill="#d99129"/>
    </clipPath>
  </defs>
  <g id="Icon_Männchen" transform="translate(-14134.104 -272.583)">
    <g id="Gruppe_338" data-name="Gruppe 338" transform="translate(14134.104 272.583)">
      <g id="Gruppe_337" data-name="Gruppe 337" clip-path="url(#clip-path)">
        <path id="Pfad_1017" data-name="Pfad 1017" d="M26.86,279.166c2.758-5.615,4.434-9.872,6.8-13.7,14.479-23.457,28.87-47.055,36.453-73.773a254.289,254.289,0,0,0,7.821-42.153c1.751-16.31-6.841-29.221-24.006-36.257-12.09-4.955-24.96-8.012-37.495-11.874-2.552-.786-5.251-1.149-7.729-2.106C2.086,96.743-1.439,89.7.556,83.45c2.321-7.271,8.22-10.658,15.751-9.306C39.967,78.394,63.5,84.3,87.351,86.261c23.151,1.9,46.756,1.011,69.941-1.086,19.252-1.741,38.189-6.994,57.257-10.734,9.091-1.784,15.221,1.645,17.342,9.821,1.847,7.121-2.547,13.353-11.317,15.8-10.3,2.869-20.764,5.2-30.923,8.486-30.894,9.992-39.677,25.765-34.078,57.765,5.829,33.312,20.7,62.648,38.04,91.049,2.54,4.161,5.192,8.259,7.583,12.5,3.984,7.074,2.977,14.273-2.388,18.46-6,4.681-13.274,4.316-18.731-2.447-9.784-12.125-18.981-24.741-28.06-37.412-5.816-8.116-10.892-16.759-16.48-25.043a57.788,57.788,0,0,0-7.719-9.693c-7.424-7.061-16.09-7.163-23.375.052-3.935,3.9-7,8.716-10.2,13.3-11.834,17-23.481,34.133-35.383,51.087a58.632,58.632,0,0,1-8.774,9.771c-4.13,3.716-9.43,5.048-14.068,1.723-3.574-2.561-5.985-6.744-9.161-10.5" fill="#d99129"/>
        <path id="Pfad_1018" data-name="Pfad 1018" d="M81.322,35.6C81.412,16.138,97.5-.159,116.475,0c19.252.162,35.921,17.145,35.649,36.32-.27,19.075-16.644,35.431-35.636,35.6-19.242.17-35.258-16.37-35.166-36.317" fill="#d99129"/>
      </g>
    </g>
  </g>
</svg>
