<svg id="Icon_Firmgebäude" xmlns="http://www.w3.org/2000/svg" xmlns:xlink="http://www.w3.org/1999/xlink" width="255.678" height="267.146" viewBox="0 0 255.678 267.146">
  <defs>
    <clipPath id="clip-path">
      <rect id="Rechteck_244" data-name="Rechteck 244" width="255.677" height="267.146" fill="#d99129"/>
    </clipPath>
  </defs>
  <g id="Gruppe_339" data-name="Gruppe 339" clip-path="url(#clip-path)">
    <path id="Pfad_1019" data-name="Pfad 1019" d="M205.776,134.03c-5.511.045-11.024.008-16.833.008-.207-1.921-.492-3.336-.494-4.75q-.035-62.734,0-125.465A32.5,32.5,0,0,1,188.891,0H66.449c.154,4.243.435,8.487.443,12.732q.066,34.769.021,69.539v6.948c-2.594.117-4.575.28-6.557.282-17.8.019-35.606.193-53.4-.1C1.75,89.313-.021,90.554,0,96.1q.311,82.054.018,164.11c-.017,5.079,1.275,6.6,6.5,6.584q121-.247,241.994-.095c2.39,0,4.779.29,7.17.444V133.572q-24.951.233-49.9.457M21.8,111.191H44.3v22.5H21.8ZM44.119,256.136H21.99V211.37h22.13Zm.188-77.917H21.8V155.714H44.307ZM88.59,22.141h22.5v22.5H88.59Zm22.5,67.026h-22.5v-22.5h22.5Zm-22.5,22.023h22.5v22.5H88.59Zm0,44.524h22.5v22.5H88.59Zm33.637,100.419H88.587V211.371h33.64Zm22.02-233.991h22.5v22.5h-22.5Zm0,44.717h22.505V89.168H144.243Zm0,44.332h22.5v22.5h-22.5Zm22.5,67.025h-22.5v-22.5h22.5Zm0,77.917h-33.64V211.37h33.64Zm66.6,0h-22.13V211.369h22.13Zm.185-77.92h-22.5v-22.5h22.5Z" transform="translate(0)" fill="#d99129"/>
  </g>
</svg>
